<svg id="Layer_1" data-name="Layer 1" xmlns="http://www.w3.org/2000/svg" xmlns:xlink="http://www.w3.org/1999/xlink" viewBox="0 0 100 100"><defs><style>.cls-1,.cls-3{stroke:#0c4c75;}.cls-1{stroke-width:0.1px;fill:url(#linear-gradient);}.cls-2{fill:#8c96a1;}.cls-3{stroke-width:0.1px;fill:url(#linear-gradient-2);}</style><linearGradient id="linear-gradient" x1="50" y1="101.02" x2="50" y2="4.05" gradientTransform="matrix(1, 0, 0, -1, 0, 102)" gradientUnits="userSpaceOnUse"><stop offset="0" stop-color="#70b0df"/><stop offset="0.5" stop-color="#1b81c5"/><stop offset="1" stop-color="#4a98ce"/></linearGradient><linearGradient id="linear-gradient-2" x1="50" y1="71.41" x2="50" y2="38.63" xlink:href="#linear-gradient"/></defs><title>ajax_3</title><path class="cls-1" d="M85.45,8.25H72.29a3.93,3.93,0,0,0,.47-1.84V5.75a4,4,0,0,0-4-4H31.24a4,4,0,0,0-4,4V6.41a3.94,3.94,0,0,0,.47,1.84H14.55A14.59,14.59,0,0,0,0,22.8V83.7A14.59,14.59,0,0,0,14.55,98.25h70.9A14.59,14.59,0,0,0,100,83.7V22.8A14.59,14.59,0,0,0,85.45,8.25ZM93,83.7a7.56,7.56,0,0,1-7.55,7.55H14.55A7.56,7.56,0,0,1,7,83.7V22.8a7.56,7.56,0,0,1,7.55-7.55h70.9A7.56,7.56,0,0,1,93,22.8V83.7Z"/><g id="g4204"><path id="path4206" class="cls-2" d="M19.22,46.61L11.74,63.35h4.89l1.45-3.55H25.6l1.45,3.55h4.89l-7.5-16.75H19.22Zm2.66,3.95,1.27,3.18,1.27,3.18H19.35l1.26-3.19,1.26-3.19h0Z"/><path id="path4208" class="cls-2" d="M55.48,46.61L48,63.35H52.9l1.45-3.55h7.51l1.45,3.55h4.89l-7.5-16.75H55.48Zm2.66,3.95,1.27,3.18,1.27,3.18H55.62l1.26-3.19,1.26-3.19h0Z"/><path id="path4210" class="cls-2" d="M69.49,46.55H75l3.55,5.34,3.76-5.34h5.47l-6.59,8.12,7,8.75H82.7l-4-5.7-4,5.7H68.79l7.16-8.67Z"/><path id="path4212" class="cls-2" d="M46,39.46L39.34,46l2.29,2.07L43.8,45.9H44V58.38a2.86,2.86,0,0,1-2.86,2.86H38.9A2.86,2.86,0,0,1,36,58.38V57H31.62v1.66a5.16,5.16,0,0,0,5.17,5.17h5.87a5.16,5.16,0,0,0,5.17-5.17V45.9H48l2.53,2.17,2-2.07L46,39.46h0Z"/><path id="path4214" class="cls-2" d="M33.8,55.67l6.65-6.54-2.29-2.07L36,49.24H35.75V36.75a2.86,2.86,0,0,1,2.86-2.86h2.27a2.86,2.86,0,0,1,2.86,2.86v1.33h4.42V36.43A5.16,5.16,0,0,0,43,31.25H37.12a5.16,5.16,0,0,0-5.17,5.17v12.8H31.78l-2.53-2.17-2,2.07,6.54,6.54h0Z"/></g><path id="path3338" class="cls-3" d="M37.12,30.85A5.16,5.16,0,0,0,31.95,36v12.8H31.78l-2.53-2.17-2,2.07,6.54,6.54,6.65-6.54-2.29-2.07L36,48.83H35.75V36.35a2.86,2.86,0,0,1,2.86-2.86h2.27a2.86,2.86,0,0,1,2.86,2.86v1.33h4.42V36A5.16,5.16,0,0,0,43,30.85H37.12ZM46,39.05l-6.65,6.54,2.29,2.07,2.17-2.18H44V58a2.86,2.86,0,0,1-2.86,2.86H38.9A2.86,2.86,0,0,1,36,58V56.64H31.62V58.3a5.16,5.16,0,0,0,5.17,5.17h5.87a5.16,5.16,0,0,0,5.17-5.17V45.5H48l2.53,2.17,2-2.07Zm23.5,7.09,6.46,8.2L68.79,63h5.93l4-5.7,4,5.7h5.55l-7-8.75,6.59-8.12H82.36l-3.76,5.34L75,46.14H69.49Zm-50.27.06L11.74,62.95h4.89l1.45-3.55H25.6l1.45,3.55h4.89L24.45,46.2H19.22Zm36.26,0L48,62.95H52.9l1.45-3.55h7.51l1.45,3.55h4.89L60.71,46.2H55.48ZM21.87,50.15l1.27,3.18,1.27,3.18H19.35l1.26-3.19Zm36.26,0,1.27,3.18,1.27,3.18H55.62l1.26-3.19Z"/></svg>